<svg xmlns="http://www.w3.org/2000/svg" width="24" height="24" viewBox="0 0 24 24" fill="none">
  <g clip-path="url(#clip0_1_149)">
    <path d="M9.91479 13.9604H4.24236C4.05811 13.9604 3.90901 13.8114 3.90901 13.6271C3.90901 13.4428 4.05811 13.2938 4.24236 13.2938H9.91479C10.099 13.2938 10.2481 13.4428 10.2481 13.6271C10.2481 13.8114 10.099 13.9604 9.91479 13.9604ZM23.4511 5.95003L18.8474 10.5569V16.5507C18.8474 17.6354 17.9653 18.5176 16.8806 18.5176H8.57457L7.054 20.7016C6.82677 21.0317 6.45013 21.2296 6.04712 21.2296C5.64411 21.2296 5.26714 21.031 5.03894 20.6997L3.51935 18.5176H1.96688C0.882199 18.5176 0 17.6354 0 16.5507V7.17729C0 6.09261 0.882199 5.21042 1.96688 5.21042H16.8806C17.4226 5.21042 17.9206 5.43626 18.2859 5.81725L20.8026 3.30116C21.5116 2.5928 22.7447 2.5941 23.4511 3.30116C23.8053 3.65469 24 4.12509 24 4.62543C24 5.1261 23.8053 5.5965 23.4511 5.95003ZM18.1808 11.2238L15.348 14.0575C15.1624 14.2427 14.9469 14.3892 14.7073 14.4933L12.9347 15.2613L12.9331 15.2623L12.9319 15.2625L11.8752 15.7203C11.7918 15.7561 11.7046 15.7737 11.6186 15.7737C11.452 15.7737 11.2892 15.7086 11.1661 15.5849C10.9786 15.397 10.9266 15.1187 11.0327 14.8755L12.2651 12.0476C12.368 11.8106 12.5139 11.5964 12.6975 11.4115L13.676 10.432H4.24236C4.0581 10.432 3.90901 10.2829 3.90901 10.0986C3.90901 9.91438 4.0581 9.76528 4.24236 9.76528H14.342L17.8153 6.28825C17.5736 6.03328 17.2369 5.8771 16.8806 5.8771H1.96688C1.25005 5.8771 0.666698 6.46046 0.666698 7.17728V16.5507C0.666698 17.2675 1.25005 17.8509 1.96688 17.8509H3.69351C3.80256 17.8509 3.90478 17.9043 3.96696 17.9938L5.58714 20.3204C5.69359 20.475 5.86059 20.5629 6.0468 20.5629C6.233 20.5629 6.40065 20.475 6.5058 20.3217L8.12696 17.9938C8.18914 17.9043 8.29136 17.8509 8.40041 17.8509H16.8806C17.5974 17.8509 18.1808 17.2675 18.1808 16.5507L18.1808 11.2238ZM14.3019 13.9443L12.8141 12.4566L12.2333 13.7888C12.3866 13.8809 12.5304 13.9827 12.6493 14.1014C12.7821 14.234 12.8865 14.3838 12.9774 14.5411L14.3019 13.9443ZM11.6434 15.1421L12.3721 14.8138C12.317 14.7281 12.2529 14.6473 12.1786 14.5728C12.1165 14.5111 12.0439 14.4544 11.9661 14.402L11.6434 15.1421ZM22.0982 6.36248L21.0562 5.31687L20.3919 4.65261L13.1762 11.8759L14.8813 13.581L22.0982 6.36248ZM23.3333 4.62543C23.3333 4.30348 23.2077 4.00041 22.9798 3.77253C22.524 3.31678 21.7297 3.31614 21.274 3.77253L20.8657 4.18116L21.5755 4.89339L22.5703 5.88818L22.9798 5.47866C23.2077 5.25078 23.3333 4.94771 23.3333 4.62543Z" fill="#8F9297"/>
  </g>
  <defs>
    <clipPath id="clip0_1_149">
      <rect width="24" height="24" fill="white"/>
    </clipPath>
  </defs>
</svg>