<svg xmlns="http://www.w3.org/2000/svg" width="24" height="24" viewBox="0 0 24 24" fill="none">
  <path d="M19.5 18H18.75V17.22C18.75 17.1285 18.7137 17.0407 18.649 16.976C18.5843 16.9113 18.4965 16.875 18.405 16.875H14.25C14.1585 16.875 14.0708 16.9113 14.0061 16.976C13.9414 17.0407 13.905 17.1285 13.905 17.22V18H13.155V17.22C13.155 16.9296 13.2704 16.6511 13.4757 16.4457C13.6811 16.2404 13.9596 16.125 14.25 16.125H18.405C18.6954 16.125 18.974 16.2404 19.1793 16.4457C19.3847 16.6511 19.5 16.9296 19.5 17.22V18Z" fill="#8F9297"/>
  <path d="M15.375 15H14.625V13.875C14.6325 13.5304 14.7099 13.1909 14.8523 12.877C14.9947 12.5631 15.1993 12.2813 15.4537 12.0487L17.205 10.2975C17.4183 10.0988 17.7003 9.99059 17.9918 9.99573C18.2832 10.0009 18.5613 10.1189 18.7674 10.3251C18.9736 10.5312 19.0916 10.8093 19.0968 11.1007C19.1019 11.3922 18.9937 11.6742 18.795 11.8875L17.1375 13.545L16.6088 13.0162L18.2662 11.3587C18.3277 11.287 18.3598 11.1947 18.3561 11.1004C18.3525 11.006 18.3134 10.9164 18.2466 10.8497C18.1798 10.7829 18.0903 10.7438 17.9959 10.7401C17.9015 10.7365 17.8092 10.7686 17.7375 10.83L15.9863 12.5812C15.8027 12.7448 15.654 12.9436 15.5489 13.1659C15.4439 13.3882 15.3848 13.6293 15.375 13.875V15Z" fill="#8F9297"/>
  <path d="M18 16.5H17.25V16.125C17.25 15.2438 18.0225 14.4488 18.1088 14.3588L19.2338 13.2338C19.5754 12.9027 19.8004 12.4698 19.875 12H20.625C20.625 12.8812 19.8525 13.6762 19.7662 13.7662L18.6412 14.8912C18.2996 15.2223 18.0746 15.6552 18 16.125V16.5Z" fill="#8F9297"/>
  <path d="M20.625 12H19.875V7.5C19.875 7.40054 19.8355 7.30516 19.7652 7.23483C19.6948 7.16451 19.5995 7.125 19.5 7.125C19.4005 7.125 19.3052 7.16451 19.2348 7.23483C19.1645 7.30516 19.125 7.40054 19.125 7.5V11.25H18.375V7.5C18.375 7.20163 18.4935 6.91548 18.7045 6.7045C18.9155 6.49353 19.2016 6.375 19.5 6.375C19.7984 6.375 20.0845 6.49353 20.2955 6.7045C20.5065 6.91548 20.625 7.20163 20.625 7.5V12Z" fill="#8F9297"/>
  <path d="M19.5 21H13.17C13.0705 21 12.9751 20.9605 12.9048 20.8902C12.8345 20.8198 12.795 20.7245 12.795 20.625V18C12.795 17.9005 12.8345 17.8052 12.9048 17.7348C12.9751 17.6645 13.0705 17.625 13.17 17.625H19.5C19.5994 17.625 19.6948 17.6645 19.7651 17.7348C19.8355 17.8052 19.875 17.9005 19.875 18V20.625C19.875 20.7245 19.8355 20.8198 19.7651 20.8902C19.6948 20.9605 19.5994 21 19.5 21ZM13.5375 20.25H19.125V18.375H13.545L13.5375 20.25Z" fill="#8F9297"/>
  <path d="M10.8375 18H10.0875V17.22C10.0875 17.1298 10.0522 17.0432 9.98912 16.9787C9.92603 16.9142 9.84019 16.877 9.75 16.875H5.595C5.5035 16.875 5.41575 16.9113 5.35105 16.976C5.28635 17.0407 5.25 17.1285 5.25 17.22V18H4.5V17.22C4.5 16.9296 4.61537 16.6511 4.82072 16.4457C5.02607 16.2404 5.30459 16.125 5.595 16.125H9.75C10.0404 16.125 10.3189 16.2404 10.5243 16.4457C10.7296 16.6511 10.845 16.9296 10.845 17.22L10.8375 18Z" fill="#8F9297"/>
  <path d="M9.37499 16.5H8.62499V13.875C8.61572 13.6287 8.55681 13.3868 8.45177 13.1639C8.34674 12.9409 8.19774 12.7415 8.01374 12.5775L6.26249 10.8263C6.22887 10.787 6.1875 10.7551 6.14098 10.7326C6.09445 10.7101 6.04378 10.6974 5.99213 10.6955C5.94049 10.6935 5.88899 10.7022 5.84087 10.721C5.79274 10.7399 5.74904 10.7685 5.71249 10.805C5.67595 10.8416 5.64735 10.8853 5.6285 10.9334C5.60964 10.9815 5.60094 11.033 5.60294 11.0846C5.60493 11.1363 5.61758 11.187 5.64009 11.2335C5.6626 11.28 5.69448 11.3214 5.73374 11.355L7.39124 13.0125L6.86249 13.545L5.20499 11.8875C5.09446 11.7845 5.0058 11.6603 4.94432 11.5223C4.88283 11.3843 4.84976 11.2353 4.8471 11.0843C4.84443 10.9332 4.87222 10.7832 4.9288 10.6431C4.98538 10.503 5.0696 10.3758 5.17643 10.2689C5.28326 10.1621 5.41051 10.0779 5.55059 10.0213C5.69067 9.96473 5.84072 9.93695 5.99177 9.93961C6.14282 9.94228 6.29179 9.97534 6.42979 10.0368C6.56779 10.0983 6.69199 10.187 6.79499 10.2975L8.54624 12.0488C8.80064 12.2813 9.00524 12.5631 9.14768 12.877C9.29013 13.1909 9.36745 13.5304 9.37499 13.875V16.5Z" fill="#8F9297"/>
  <path d="M6.75 16.5H6V16.125C5.92516 15.6553 5.70018 15.2224 5.35875 14.8912L4.23375 13.7662C4.1475 13.6762 3.375 12.8812 3.375 12H4.125C4.19984 12.4697 4.42482 12.9026 4.76625 13.2338L5.89125 14.3588C5.9775 14.4488 6.75 15.2438 6.75 16.125V16.5Z" fill="#8F9297"/>
  <path d="M4.125 12H3.375V7.5C3.375 7.20163 3.49353 6.91548 3.7045 6.7045C3.91548 6.49353 4.20163 6.375 4.5 6.375C4.79837 6.375 5.08452 6.49353 5.2955 6.7045C5.50647 6.91548 5.625 7.20163 5.625 7.5V11.25H4.875V7.5C4.875 7.40054 4.83549 7.30516 4.76516 7.23483C4.69484 7.16451 4.59946 7.125 4.5 7.125C4.40054 7.125 4.30516 7.16451 4.23484 7.23483C4.16451 7.30516 4.125 7.40054 4.125 7.5V12Z" fill="#8F9297"/>
  <path d="M10.83 21H4.5C4.40054 21 4.30516 20.9605 4.23484 20.8902C4.16451 20.8198 4.125 20.7245 4.125 20.625V18C4.125 17.9005 4.16451 17.8052 4.23484 17.7348C4.30516 17.6645 4.40054 17.625 4.5 17.625H10.8375C10.937 17.625 11.0323 17.6645 11.1027 17.7348C11.173 17.8052 11.2125 17.9005 11.2125 18V20.625C11.2125 20.6749 11.2026 20.7243 11.1833 20.7703C11.1639 20.8163 11.1356 20.8579 11.1 20.8929C11.0644 20.9278 11.0222 20.9552 10.9758 20.9736C10.9294 20.992 10.8799 21.001 10.83 21ZM4.875 20.25H10.4625V18.375H4.875V20.25Z" fill="#8F9297"/>
  <path d="M12 10.5C11.8308 10.5017 11.6629 10.4694 11.5063 10.405C11.3498 10.3406 11.2078 10.2453 11.0888 10.125L8.13002 7.07625L8.11127 7.05375C7.73856 6.7442 7.45494 6.34105 7.28953 5.88567C7.12411 5.43029 7.08287 4.93909 7.17002 4.4625C7.25918 3.94684 7.49853 3.46896 7.85808 3.08873C8.21764 2.70849 8.6814 2.44282 9.19127 2.325C9.57059 2.24225 9.96366 2.24579 10.3414 2.33536C10.7192 2.42494 11.072 2.59825 11.3738 2.8425C11.6232 3.04089 11.8353 3.28217 12 3.555C12.1633 3.2768 12.3755 3.03035 12.6263 2.8275C12.9285 2.5827 13.2819 2.40907 13.6604 2.31949C14.0389 2.2299 14.4326 2.22666 14.8125 2.31C15.3224 2.42782 15.7862 2.69349 16.1457 3.07373C16.5053 3.45396 16.7446 3.93184 16.8338 4.4475C16.9209 4.92409 16.8797 5.41529 16.7143 5.87067C16.5489 6.32605 16.2652 6.7292 15.8925 7.03875L15.8738 7.06125L12.9113 10.125C12.7922 10.2453 12.6502 10.3406 12.4937 10.405C12.3372 10.4694 12.1693 10.5017 12 10.5ZM8.72627 6.59625L11.6288 9.59625C11.6779 9.64568 11.7363 9.68491 11.8007 9.71168C11.8651 9.73845 11.9341 9.75224 12.0038 9.75224C12.0735 9.75224 12.1425 9.73845 12.2068 9.71168C12.2712 9.68491 12.3296 9.64568 12.3788 9.59625L15.285 6.59625C15.3078 6.56002 15.3371 6.52825 15.3713 6.5025C15.6565 6.27955 15.8751 5.98268 16.0033 5.64416C16.1316 5.30565 16.1646 4.93846 16.0988 4.5825C16.037 4.21282 15.8674 3.86964 15.6112 3.59609C15.355 3.32253 15.0236 3.1308 14.6588 3.045C14.388 2.98466 14.1069 2.98708 13.8372 3.05207C13.5674 3.11707 13.3161 3.24292 13.1025 3.42C12.8751 3.60403 12.6917 3.83661 12.5659 4.1007C12.44 4.36479 12.3748 4.65369 12.375 4.94625C12.375 5.0457 12.3355 5.14109 12.2652 5.21141C12.1949 5.28174 12.0995 5.32125 12 5.32125C11.9006 5.32125 11.8052 5.28174 11.7349 5.21141C11.6645 5.14109 11.625 5.0457 11.625 4.94625C11.6268 4.65273 11.5628 4.36255 11.4375 4.0971C11.3122 3.83165 11.129 3.5977 10.9013 3.4125C10.6875 3.23567 10.4362 3.10997 10.1665 3.04499C9.89683 2.98 9.61586 2.97744 9.34502 3.0375C8.98018 3.1233 8.64883 3.31503 8.39263 3.58859C8.13642 3.86214 7.96678 4.20532 7.90502 4.575C7.83762 4.93084 7.8691 5.29835 7.99605 5.63754C8.123 5.97673 8.34055 6.27461 8.62502 6.49875C8.66462 6.52458 8.69897 6.55766 8.72627 6.59625Z" fill="#8F9297"/>
</svg>