<svg xmlns="http://www.w3.org/2000/svg" width="24" height="24" viewBox="0 0 24 24" fill="none">
  <g clip-path="url(#clip0_1_86)">
    <path d="M24.0422 12.0002C24.0422 11.8627 23.9623 11.738 23.8374 11.6807L17.6866 8.85317L23.8374 6.02565C24.1039 5.90315 24.104 5.50929 23.8374 5.3868L12.189 0.032046C12.093 -0.0118994 11.9824 -0.0106176 11.8878 0.0357081L10.8329 0.551334C10.4264 0.750004 10.7324 1.38282 11.1418 1.18305L12.0467 0.740666L14.0329 1.65363L12.0288 2.57502L9.44642 1.39142C9.31733 1.33228 9.20051 1.2801 9.05952 1.34455L0.246994 5.3868C-0.0196077 5.50911 -0.0199739 5.90315 0.246811 6.02565L6.39771 8.85336L5.19214 9.40743C4.78088 9.5964 5.0722 10.2365 5.48584 10.0463L7.22022 9.24905C7.22644 9.2463 7.2323 9.24282 7.23816 9.23971L11.8953 11.3804C11.9879 11.4231 12.0965 11.4231 12.189 11.3804L16.8448 9.24026L22.8489 12.0002L12.0421 16.9679L1.23522 12.0002L3.59948 10.9133C4.01074 10.7243 3.71978 10.084 3.30596 10.2744L0.246628 11.6807C-0.0196077 11.8032 -0.0199739 12.1971 0.246628 12.3196L6.39771 15.1471L0.246628 17.9746C-0.0196077 18.0971 -0.0199739 18.491 0.246628 18.6135L11.8953 23.9682C11.9877 24.0107 12.0965 24.0107 12.189 23.9682L14.2046 23.0415C14.6157 22.8525 14.3249 22.2122 13.9109 22.4026L12.0421 23.2618L1.23522 18.2941L7.23944 15.534L11.8953 17.6743C11.9877 17.7168 12.0965 17.7168 12.189 17.6743L16.8659 15.5243C16.8924 15.549 16.9232 15.57 16.9578 15.586L22.8489 18.2939L16.2078 21.3469C15.7965 21.536 16.0879 22.176 16.5015 21.9857L23.8374 18.6135C24.1039 18.491 24.104 18.0971 23.8374 17.9746L17.6866 15.1471L23.8374 12.3196C23.9623 12.2622 24.0422 12.1375 24.0422 12.0002ZM14.8746 9.37191L12.8839 8.45675L15.0718 7.45095L17.0554 8.36941L14.8746 9.37191ZM7.03107 8.37051L9.02198 7.45534L11.2004 8.45675L9.20948 9.37191L7.03107 8.37051ZM4.06768 7.00838L6.05859 6.09322L8.18024 7.06844L6.18933 7.9836L4.06768 7.00838ZM6.29407 3.38655L8.27143 4.30208L6.05859 5.31941L4.07153 4.4059L6.29407 3.38655ZM9.11005 4.69044L11.224 5.66933L9.02198 6.68154L6.90033 5.70632L9.11005 4.69044ZM20.0164 4.40425L18.0213 5.32143L15.8396 4.32149L17.838 3.40284L20.0164 4.40425ZM17.1786 5.7087L15.0729 6.67659L12.9024 5.67153L14.9969 4.70875L17.1786 5.7087ZM17.8951 7.98342L15.9117 7.06496L18.0216 6.09505L20.0153 7.00875L17.8951 7.98342ZM12.0637 5.28316L9.94978 4.30446L12.0291 3.34846L14.1539 4.3224L12.0637 5.28316ZM9.86372 7.06844L12.0626 6.05751L14.2332 7.06258L12.0421 8.06985L9.86372 7.06844ZM20.8579 6.62148L18.8641 5.70778L20.8581 4.79115L22.8489 5.70632L20.8579 6.62148ZM14.8746 2.04053L16.9962 3.01594L14.9965 3.93513L12.8718 2.96119L14.8746 2.04053ZM9.11115 3.91609L7.13471 3.00093L9.20197 2.0528L11.1861 2.96229L9.11115 3.91609ZM3.22906 4.79243L5.21686 5.70632L3.22594 6.62148L1.23595 5.70668L3.22906 4.79243ZM12.0421 10.674L10.0512 9.75881L12.0421 8.84365L14.0329 9.75881L12.0421 10.674Z" fill="#8F9297"/>
  </g>
  <defs>
    <clipPath id="clip0_1_86">
      <rect width="24" height="24" fill="white"/>
    </clipPath>
  </defs>
</svg>