<svg xmlns="http://www.w3.org/2000/svg" width="24" height="24" viewBox="0 0 24 24" fill="none">
  <path d="M10.4925 18.6975H3.58501C2.80726 18.6975 2.17501 18.0615 2.17501 17.28V8.24625H20.07V8.9775C20.07 9.35025 20.3723 9.6525 20.745 9.6525C21.1178 9.6525 21.42 9.35025 21.42 8.9775V4.965C21.42 3.44325 20.1818 2.20425 18.6593 2.20425H3.58501C2.06326 2.20425 0.825012 3.44325 0.825012 4.965V17.28C0.825012 18.8063 2.06326 20.0475 3.58576 20.0475H10.4933C10.866 20.0475 11.1683 19.7453 11.1683 19.3725C11.1683 18.9998 10.8653 18.6975 10.4925 18.6975ZM3.58501 3.555H18.66C19.4378 3.555 20.07 4.18725 20.07 4.965V6.8955H2.17501V4.965C2.17501 4.18725 2.80726 3.555 3.58501 3.555Z" fill="#8F9297"/>
  <path d="M4.44977 5.817C4.77783 5.817 5.04377 5.55106 5.04377 5.223C5.04377 4.89494 4.77783 4.629 4.44977 4.629C4.12172 4.629 3.85577 4.89494 3.85577 5.223C3.85577 5.55106 4.12172 5.817 4.44977 5.817Z" fill="#8F9297"/>
  <path d="M6.54304 5.817C6.87109 5.817 7.13704 5.55106 7.13704 5.223C7.13704 4.89494 6.87109 4.629 6.54304 4.629C6.21498 4.629 5.94904 4.89494 5.94904 5.223C5.94904 5.55106 6.21498 5.817 6.54304 5.817Z" fill="#8F9297"/>
  <path d="M8.63624 5.817C8.96429 5.817 9.23024 5.55106 9.23024 5.223C9.23024 4.89494 8.96429 4.629 8.63624 4.629C8.30818 4.629 8.04224 4.89494 8.04224 5.223C8.04224 5.55106 8.30818 5.817 8.63624 5.817Z" fill="#8F9297"/>
  <path d="M22.458 11.6423C21.534 10.7168 19.9207 10.7175 18.9967 11.6415L13.0125 17.6258C12.8197 17.8193 12.6937 18.063 12.648 18.333L12.3202 20.2725C12.2497 20.6895 12.3862 21.117 12.6847 21.4148C12.9315 21.6615 13.2652 21.798 13.6087 21.798C13.6815 21.798 13.7535 21.7913 13.8255 21.78L15.7672 21.4523C16.0372 21.4058 16.2825 21.2798 16.473 21.0878L22.4572 15.1035C22.9192 14.6415 23.1735 14.0258 23.1735 13.3725C23.1735 12.7193 22.9207 12.105 22.458 11.6423ZM15.543 20.121L13.6522 20.4975L13.968 18.5805L18.2572 14.2913L19.8105 15.8445L15.543 20.121ZM21.5032 14.148L20.7645 14.8883L19.212 13.3358L19.9522 12.5955C20.1592 12.3885 20.4352 12.2738 20.7277 12.2738C21.0202 12.2738 21.2962 12.3878 21.5032 12.5955C21.9307 13.0238 21.9307 13.7205 21.5032 14.148Z" fill="#8F9297"/>
</svg>