<svg xmlns="http://www.w3.org/2000/svg" width="24" height="24" viewBox="0 0 24 24" fill="none">
  <g clip-path="url(#clip0_1_156)" style="fill: #8F9297;">
    <mask id="mask0_1_156" style="mask-type:luminance" maskUnits="userSpaceOnUse" x="0" y="0" width="24" height="24">
      <path d="M0 1.90735e-06H24V24H0V1.90735e-06Z" />
    </mask>
    <g mask="url(#mask0_1_156)">
      <path d="M12 8.31251C9.96348 8.31251 8.3125 9.96345 8.3125 12C8.3125 14.0366 9.96348 15.6875 12 15.6875C14.0365 15.6875 15.6875 14.0366 15.6875 12C15.6875 9.96345 14.0365 8.31251 12 8.31251ZM22.3501 9.3686L21.3517 10.1905C20.2128 11.1281 20.2128 12.8719 21.3517 13.8095L22.3501 14.6314C22.7039 14.9227 22.7953 15.4271 22.5662 15.8239L20.5947 19.2386C20.3656 19.6354 19.8831 19.8085 19.4539 19.6477L18.2429 19.1941C16.8616 18.6766 15.3513 19.5485 15.1088 21.0035L14.8962 22.2791C14.8209 22.7312 14.4297 23.0625 13.9715 23.0625H10.0285C9.57029 23.0625 9.17917 22.7312 9.10384 22.2791L8.89122 21.0035C8.64873 19.5485 7.13847 18.6766 5.75711 19.1941L4.54614 19.6477C4.11695 19.8085 3.63447 19.6354 3.40529 19.2386L1.43387 15.8239C1.20475 15.4271 1.29611 14.9227 1.64992 14.6314L2.64836 13.8095C3.78719 12.8719 3.78719 11.1281 2.64836 10.1905L1.64992 9.3686C1.29611 9.07732 1.20475 8.57295 1.43387 8.17606L3.40529 4.76145C3.63447 4.36456 4.11695 4.19149 4.54614 4.35228L5.75711 4.80593C7.13847 5.32343 8.64873 4.45151 8.89122 2.99646L9.10384 1.72085C9.17917 1.26884 9.57029 0.937525 10.0285 0.937525H13.9715C14.4297 0.937525 14.8209 1.26884 14.8962 1.72085L15.1088 2.99646C15.3513 4.45151 16.8616 5.32343 18.2429 4.80593L19.4539 4.35228C19.8831 4.19149 20.3656 4.36456 20.5947 4.76145L22.5662 8.17606C22.7953 8.57295 22.7039 9.07732 22.3501 9.3686Z"  stroke-miterlimit="10" stroke-linecap="round" stroke-linejoin="round"/>
    </g>
  </g>
  <defs>
    <clipPath id="clip0_1_156">
      <rect width="24" height="24" fill="white"/>
    </clipPath>
  </defs>
</svg>