<svg xmlns="http://www.w3.org/2000/svg" width="24" height="24" viewBox="0 0 24 24"  style="fill: #8F9297;">
  <g clip-path="url(#clip0_1_129)" class="gray-active">
    <path d="M22.4062 3.49219H21.3906C21.1827 2.8537 20.5822 2.39062 19.875 2.39062H4.125C3.41785 2.39062 2.81726 2.8537 2.60944 3.49219H1.59375C0.715027 3.49219 0 4.20721 0 5.08594V13.7578C0 14.6365 0.715027 15.3516 1.59375 15.3516H2.60944C2.81726 15.9901 3.41785 16.4531 4.125 16.4531H9.81244C10.0714 16.4531 10.2812 16.2433 10.2812 15.9844C10.2812 15.7255 10.0714 15.5156 9.81244 15.5156H4.125C3.76318 15.5156 3.46875 15.2212 3.46875 14.8594V3.98438C3.46875 3.62256 3.76318 3.32812 4.125 3.32812H19.875C20.2368 3.32812 20.5312 3.62256 20.5312 3.98438V14.8594C20.5312 15.2212 20.2368 15.5156 19.875 15.5156H14.2344C13.9755 15.5156 13.7657 15.7255 13.7657 15.9844C13.7657 16.2433 13.9755 16.4531 14.2344 16.4531H19.875C20.5822 16.4531 21.1827 15.9901 21.3906 15.3516H22.4062C23.285 15.3516 24 14.6365 24 13.7578V5.08594C24 4.20721 23.285 3.49219 22.4062 3.49219ZM0.9375 13.7578V5.08594C0.9375 4.72412 1.23193 4.42969 1.59375 4.42969H2.53125V14.4141H1.59375C1.23193 14.4141 0.9375 14.1196 0.9375 13.7578ZM23.0625 13.7578C23.0625 14.1196 22.7681 14.4141 22.4062 14.4141H21.4688V4.42969H22.4062C22.7681 4.42969 23.0625 4.72412 23.0625 5.08594V13.7578Z"/>
    <path d="M17.9762 10.7642C18.0677 10.8558 18.1877 10.9014 18.3076 10.9014C18.4276 10.9014 18.5475 10.8558 18.639 10.7642L19.6439 9.75934C19.827 9.57623 19.827 9.27942 19.6439 9.09631L18.639 8.09143C18.4559 7.90851 18.1593 7.90851 17.9762 8.09143C17.7931 8.27454 17.7931 8.57135 17.9762 8.75446L18.6495 9.42773L17.9762 10.1012C17.7931 10.2843 17.7931 10.5811 17.9762 10.7642Z"/>
    <path d="M6.0238 8.09143C5.8407 7.90851 5.54407 7.90851 5.36078 8.09143L4.35608 9.09631C4.17297 9.27942 4.17297 9.57623 4.35608 9.75934L5.36078 10.7642C5.45233 10.8558 5.57245 10.9016 5.69238 10.9016C5.81232 10.9016 5.93225 10.8558 6.0238 10.7642C6.20673 10.5811 6.20673 10.2843 6.0238 10.1012L5.35034 9.42792L6.0238 8.75446C6.20691 8.57135 6.20691 8.27454 6.0238 8.09143Z" />
    <path d="M6.15839 18.2344C5.22784 18.2344 4.47089 18.9913 4.47089 19.9219C4.47089 20.8524 5.22784 21.6094 6.15839 21.6094C7.08893 21.6094 7.84589 20.8524 7.84589 19.9219C7.84589 18.9913 7.08893 18.2344 6.15839 18.2344ZM6.15839 20.6719C5.74493 20.6719 5.40839 20.3353 5.40839 19.9219C5.40839 19.5084 5.74493 19.1719 6.15839 19.1719C6.57202 19.1719 6.90839 19.5084 6.90839 19.9219C6.90839 20.3353 6.57202 20.6719 6.15839 20.6719Z" />
    <path d="M12 18.2344C11.0695 18.2344 10.3125 18.9913 10.3125 19.9219C10.3125 20.8524 11.0695 21.6094 12 21.6094C12.9305 21.6094 13.6875 20.8524 13.6875 19.9219C13.6875 18.9913 12.9305 18.2344 12 18.2344ZM12 20.6719C11.5865 20.6719 11.25 20.3353 11.25 19.9219C11.25 19.5084 11.5865 19.1719 12 19.1719C12.4135 19.1719 12.75 19.5084 12.75 19.9219C12.75 20.3353 12.4135 20.6719 12 20.6719Z" />
    <path d="M17.8416 18.2344C16.9111 18.2344 16.1541 18.9913 16.1541 19.9219C16.1541 20.8524 16.9111 21.6094 17.8416 21.6094C18.7722 21.6094 19.5291 20.8524 19.5291 19.9219C19.5291 18.9913 18.7722 18.2344 17.8416 18.2344ZM17.8416 20.6719C17.428 20.6719 17.0916 20.3353 17.0916 19.9219C17.0916 19.5084 17.428 19.1719 17.8416 19.1719C18.2551 19.1719 18.5916 19.5084 18.5916 19.9219C18.5916 20.3353 18.2551 20.6719 17.8416 20.6719Z" />
    <path d="M12.3314 16.3158C12.4186 16.2286 12.4688 16.1076 12.4688 15.9844C12.4688 15.8611 12.4186 15.7401 12.3314 15.653C12.2443 15.5658 12.1232 15.5156 12 15.5156C11.8762 15.5156 11.7557 15.5658 11.6686 15.653C11.5814 15.7401 11.5312 15.8611 11.5312 15.9844C11.5312 16.1076 11.5814 16.2286 11.6686 16.3158C11.7557 16.403 11.8768 16.4531 12 16.4531C12.1232 16.4531 12.2443 16.403 12.3314 16.3158Z" />
  </g>
  <defs>
    <clipPath id="clip0_1_129">
      <rect width="24" height="24" fill="white"/>
    </clipPath>
  </defs>
</svg>




